<svg xmlns="http://www.w3.org/2000/svg" style="display:none">

  <!-- стрелка -->
  <symbol id="arrow" viewBox="0 0 147 146">
    <path d="M145.855 141.482C146.49 141.246 146.814 140.54 146.579 139.905L142.742 129.557C142.506 128.922 141.801 128.598 141.165 128.833C140.53 129.069 140.207 129.775 140.442 130.41L143.853 139.608L134.654 143.019C134.019 143.254 133.695 143.96 133.931 144.595C134.166 145.23 134.872 145.554 135.507 145.319L145.855 141.482ZM73.6972 77.1125C73.9798 76.497 73.7099 75.769 73.0943 75.4864C72.4788 75.2039 71.7508 75.4738 71.4682 76.0893L73.6972 77.1125ZM62.7693 42.1664L63.4467 41.1441L62.7693 42.1664ZM71.4682 76.0893C71.1857 76.7049 71.4556 77.4329 72.0711 77.7154C72.6867 77.998 73.4147 77.728 73.6972 77.1125L71.4682 76.0893ZM4.13945 4.78746C4.70403 5.16157 5.46498 5.00716 5.83909 4.44258C6.21319 3.87801 6.05879 3.11705 5.49421 2.74295L4.13945 4.78746ZM17.9126 10.9718C17.348 10.5977 16.5871 10.7521 16.213 11.3166C15.8388 11.8812 15.9933 12.6422 16.5578 13.0163L17.9126 10.9718ZM24.8368 18.5022C25.4013 18.8763 26.1623 18.7219 26.5364 18.1573C26.9105 17.5927 26.7561 16.8318 26.1915 16.4576L24.8368 18.5022ZM38.6099 24.6865C38.0453 24.3124 37.2844 24.4668 36.9103 25.0313C36.5362 25.5959 36.6906 26.3569 37.2551 26.731L38.6099 24.6865ZM45.5341 32.2169C46.0986 32.591 46.8596 32.4366 47.2337 31.872C47.6078 31.3074 47.4534 30.5465 46.8888 30.1723L45.5341 32.2169ZM59.3072 38.4012C58.7426 38.0271 57.9817 38.1815 57.6076 38.746C57.2335 39.3106 57.3879 40.0716 57.9524 40.4457L59.3072 38.4012ZM65.0434 45.4578C65.5498 45.9075 66.3249 45.8615 66.7746 45.355C67.2243 44.8486 67.1783 44.0735 66.6718 43.6238L65.0434 45.4578ZM73.8301 53.4104C73.5547 52.7917 72.8299 52.5133 72.2111 52.7887C71.5924 53.0641 71.314 53.7889 71.5894 54.4077L73.8301 53.4104ZM73.6246 61.5491C73.7168 62.22 74.3354 62.6893 75.0064 62.5971C75.6774 62.5049 76.1466 61.8863 76.0544 61.2153L73.6246 61.5491ZM75.1307 73.3052C75.324 72.6561 74.9545 71.9732 74.3054 71.7799C73.6563 71.5865 72.9734 71.956 72.7801 72.6051L75.1307 73.3052ZM69.9096 80.3237C69.7261 80.9756 70.1057 81.6529 70.7577 81.8365C71.4096 82.0201 72.0869 81.6404 72.2705 80.9884L69.9096 80.3237ZM71.8107 93.259C71.6769 92.595 71.0302 92.1652 70.3663 92.299C69.7024 92.4327 69.2726 93.0794 69.4063 93.7433L71.8107 93.259ZM72.5339 102.179C72.8653 102.769 73.6128 102.979 74.2034 102.648C74.7941 102.316 75.0042 101.569 74.6728 100.978L72.5339 102.179ZM83.021 109.983C82.4568 109.608 81.6957 109.762 81.321 110.326C80.9463 110.89 81.0999 111.652 81.6641 112.026L83.021 109.983ZM89.5606 116.036C90.1761 116.319 90.9041 116.049 91.1867 115.433C91.4692 114.818 91.1993 114.09 90.5837 113.807L89.5606 116.036ZM102.446 119.252C101.83 118.969 101.102 119.239 100.82 119.855C100.537 120.47 100.807 121.199 101.423 121.481L102.446 119.252ZM109.331 125.111C109.946 125.394 110.674 125.124 110.957 124.508C111.239 123.893 110.969 123.165 110.354 122.882L109.331 125.111ZM122.216 128.327C121.601 128.045 120.873 128.315 120.59 128.93C120.307 129.546 120.577 130.274 121.193 130.556L122.216 128.327ZM129.101 134.186C129.717 134.469 130.445 134.199 130.727 133.583C131.01 132.968 130.74 132.24 130.124 131.957L129.101 134.186ZM141.986 137.402C141.371 137.12 140.643 137.39 140.36 138.005C140.078 138.621 140.348 139.349 140.963 139.631L141.986 137.402ZM-1.23278e-05 2.04452L4.13945 4.78746L5.49421 2.74295L1.35475 5.39117e-06L-1.23278e-05 2.04452ZM16.5578 13.0163L24.8368 18.5022L26.1915 16.4576L17.9126 10.9718L16.5578 13.0163ZM37.2551 26.731L45.5341 32.2169L46.8888 30.1723L38.6099 24.6865L37.2551 26.731ZM57.9524 40.4457L62.0919 43.1886L63.4467 41.1441L59.3072 38.4012L57.9524 40.4457ZM62.0919 43.1886C63.1412 43.8839 64.1258 44.6431 65.0434 45.4578L66.6718 43.6238C65.6684 42.7329 64.5925 41.9033 63.4467 41.1441L62.0919 43.1886ZM71.5894 54.4077C72.6005 56.6796 73.2862 59.0854 73.6246 61.5491L76.0544 61.2153C75.6845 58.5227 74.9352 55.8935 73.8301 53.4104L71.5894 54.4077ZM72.7801 72.6051C72.4298 73.7812 71.9934 74.9453 71.4682 76.0893L73.6972 77.1125C74.2707 75.8633 74.7477 74.5912 75.1307 73.3052L72.7801 72.6051ZM71.4682 76.0893C70.8301 77.4795 70.3119 78.8949 69.9096 80.3237L72.2705 80.9884C72.6383 79.6819 73.1125 78.3864 73.6972 77.1125L71.4682 76.0893ZM69.4063 93.7433C70.0019 96.6996 71.0582 99.5485 72.5339 102.179L74.6728 100.978C73.3224 98.5716 72.3556 95.9643 71.8107 93.259L69.4063 93.7433ZM81.6641 112.026C82.9007 112.847 84.2164 113.583 85.6065 114.221L86.6297 111.992C85.3558 111.407 84.1517 110.734 83.021 109.983L81.6641 112.026ZM85.6065 114.221L89.5606 116.036L90.5837 113.807L86.6297 111.992L85.6065 114.221ZM101.423 121.481L109.331 125.111L110.354 122.882L102.446 119.252L101.423 121.481ZM121.193 130.556L129.101 134.186L130.124 131.957L122.216 128.327L121.193 130.556ZM140.963 139.631L144.917 141.446L145.94 139.217L141.986 137.402L140.963 139.631Z" fill="currentColor"/>
  </symbol>

 <symbol id="small-arrow" viewBox="0 0 104 36">
 <path d="M103.471 27.7915C103.933 27.3297 103.933 26.581 103.471 26.1193L95.9459 18.5943C95.4841 18.1325 94.7355 18.1325 94.2737 18.5943C93.8119 19.056 93.8119 19.8047 94.2737 20.2665L100.963 26.9554L94.2737 33.6442C93.8119 34.106 93.8119 34.8547 94.2737 35.3164C94.7355 35.7782 95.4841 35.7782 95.9459 35.3164L103.471 27.7915ZM50.1918 13.1942C49.8095 12.6648 49.0704 12.5456 48.5409 12.9279C48.0115 13.3103 47.8923 14.0494 48.2747 14.5788L50.1918 13.1942ZM74.7927 26.9554L74.7927 25.7729L74.7927 26.9554ZM48.2747 14.5788C48.657 15.1082 49.3962 15.2274 49.9256 14.8451C50.455 14.4627 50.5742 13.7236 50.1918 13.1942L48.2747 14.5788ZM3.95366 6.6333C4.57832 6.44285 4.93032 5.78208 4.73987 5.15743C4.54943 4.53277 3.88866 4.18078 3.26401 4.37122L3.95366 6.6333ZM10.8704 2.05219C10.2458 2.24264 9.89376 2.9034 10.0842 3.52806C10.2746 4.15271 10.9354 4.50471 11.5601 4.31427L10.8704 2.05219ZM19.0616 2.35125C19.707 2.25177 20.1496 1.6479 20.0501 1.00248C19.9506 0.357065 19.3467 -0.0855023 18.7013 0.0139827L19.0616 2.35125ZM29.5747 0.171169C28.9324 0.0531977 28.3161 0.478248 28.1981 1.12055C28.0802 1.76284 28.5052 2.37916 29.1475 2.49713L29.5747 0.171169ZM37.3638 5.26277C37.9467 5.55721 38.6579 5.32336 38.9523 4.74046C39.2468 4.15757 39.0129 3.44635 38.43 3.15191L37.3638 5.26277ZM47.1852 9.60183C46.7314 9.13231 45.9828 9.11964 45.5133 9.57353C45.0438 10.0274 45.0311 10.776 45.485 11.2455L47.1852 9.60183ZM50.5187 17.3538C50.9564 17.8385 51.7041 17.8765 52.1887 17.4388C52.6734 17.0011 52.7114 16.2534 52.2737 15.7688L50.5187 17.3538ZM58.1165 20.7803C57.5709 20.4214 56.8377 20.5729 56.4789 21.1185C56.12 21.6641 56.2715 22.3973 56.8171 22.7561L58.1165 20.7803ZM63.1621 26.0004C63.7724 26.2326 64.4555 25.9261 64.6877 25.3158C64.9199 24.7054 64.6134 24.0223 64.0031 23.7901L63.1621 26.0004ZM71.4867 25.5926C70.8375 25.5215 70.2536 25.9901 70.1826 26.6393C70.1115 27.2884 70.5801 27.8723 71.2293 27.9434L71.4867 25.5926ZM81.2222 28.1378C81.8752 28.1378 82.4046 27.6084 82.4046 26.9554C82.4046 26.3023 81.8752 25.7729 81.2222 25.7729L81.2222 28.1378ZM96.2054 25.7729C95.5523 25.7729 95.0229 26.3023 95.0229 26.9554C95.0229 27.6084 95.5523 28.1378 96.2054 28.1378L96.2054 25.7729ZM0.689677 7.62841L3.95366 6.6333L3.26401 4.37122L1.97744e-05 5.36634L0.689677 7.62841ZM11.5601 4.31427L14.8241 3.31915L14.1344 1.05707L10.8704 2.05219L11.5601 4.31427ZM14.8241 3.31915C16.227 2.89143 17.6428 2.56995 19.0616 2.35125L18.7013 0.0139827C17.1717 0.249764 15.6458 0.596294 14.1344 1.05707L14.8241 3.31915ZM29.1475 2.49713C32.0036 3.02171 34.7718 3.95352 37.3638 5.26277L38.43 3.15191C35.6364 1.74081 32.653 0.736553 29.5747 0.171169L29.1475 2.49713ZM45.485 11.2455C46.4827 12.2776 47.416 13.3898 48.2747 14.5788L50.1918 13.1942C49.2667 11.9133 48.261 10.7146 47.1852 9.60183L45.485 11.2455ZM48.2747 14.5788C48.9758 15.5497 49.7254 16.4755 50.5187 17.3538L52.2737 15.7688C51.5378 14.9539 50.8424 14.095 50.1918 13.1942L48.2747 14.5788ZM56.8171 22.7561C58.8075 24.0652 60.9355 25.1532 63.1621 26.0004L64.0031 23.7901C61.9374 23.0041 59.9632 21.9947 58.1165 20.7803L56.8171 22.7561ZM71.2293 27.9434C72.4058 28.0722 73.5952 28.1378 74.7927 28.1378L74.7927 25.7729C73.6815 25.7729 72.5781 25.7121 71.4867 25.5926L71.2293 27.9434ZM74.7927 28.1378L81.2222 28.1378L81.2222 25.7729L74.7927 25.7729L74.7927 28.1378ZM96.2054 28.1378L102.635 28.1378L102.635 25.7729L96.2054 25.7729L96.2054 28.1378Z" fill="currentColor"/>
 </symbol>

  <symbol id="icon-fb" viewBox="0 0 44 44">
   <path d="M13.5623 22.641H17.3837V38.4355C17.3837 38.7473 17.6353 39 17.9459 39H24.4252C24.7358 39 24.9875 38.7473 24.9875 38.4355V22.7154H29.3805C29.6661 22.7154 29.9065 22.5002 29.9391 22.2154L30.6063 16.4006C30.6246 16.2406 30.5741 16.0804 30.4675 15.9604C30.3608 15.8403 30.2081 15.7715 30.0478 15.7715H24.9877V12.1265C24.9877 11.0278 25.577 10.4706 26.7393 10.4706C26.905 10.4706 30.0478 10.4706 30.0478 10.4706C30.3584 10.4706 30.6101 10.2178 30.6101 9.90608V4.56869C30.6101 4.25685 30.3584 4.00418 30.0478 4.00418H25.4883C25.4561 4.0026 25.3847 4 25.2794 4C24.4883 4 21.7384 4.15592 19.5662 6.16221C17.1594 8.3855 17.494 11.0475 17.5739 11.5091V15.7714H13.5623C13.2517 15.7714 13 16.0241 13 16.3359V22.0764C13 22.3882 13.2517 22.641 13.5623 22.641Z" fill="currentColor"/>
  </symbol>

  <symbol id="icon-inst" viewBox="0 0 44 44">
    <path d="M9.33182 4.56592H34.4071C36.7894 4.56592 38.7369 6.52185 38.7369 8.9136V34.0885C38.7369 36.4796 36.7894 38.4342 34.4071 38.4342H9.33182C6.94954 38.4342 5 36.4795 5 34.0885V8.9136C5 6.52185 6.94954 4.56592 9.33182 4.56592ZM29.5769 8.32751C28.7404 8.32751 28.0582 9.01521 28.0582 9.85453V13.5029C28.0582 14.3425 28.7404 15.0287 29.5769 15.0287H33.3895C34.2246 15.0287 34.9083 14.3425 34.9083 13.5029V9.85453C34.9083 9.01521 34.2246 8.32751 33.3895 8.32751H29.5769ZM34.9228 18.8884H31.9544C32.2359 19.8114 32.3885 20.7847 32.3885 21.7966C32.3885 27.4285 27.6917 31.9963 21.9002 31.9963C16.1101 31.9963 11.4132 27.4285 11.4132 21.7966C11.4132 20.7847 11.5672 19.8114 11.8474 18.8884H8.75042V33.1968C8.75042 33.9378 9.35307 34.5406 10.0904 34.5406H33.5834C34.3214 34.5406 34.9228 33.9378 34.9228 33.1968V18.8884ZM21.9003 14.8363C18.16 14.8363 15.1259 17.7862 15.1259 21.4285C15.1259 25.067 18.16 28.0192 21.9003 28.0192C25.6426 28.0192 28.6768 25.067 28.6768 21.4285C28.6768 17.7861 25.6426 14.8363 21.9003 14.8363Z" fill="currentColor"/>
  </symbol>

  <symbol id="icon-twitter" viewBox="0 0 44 44">
    <path d="M39.0715 10.4794C38.5238 10.7232 37.9607 10.929 37.3854 11.0961C38.0666 10.3228 38.5859 9.41275 38.9029 8.41695C38.974 8.19374 38.9003 7.94942 38.7176 7.80343C38.535 7.65733 38.2815 7.63983 38.0805 7.7594C36.8587 8.48695 35.5404 9.0098 34.1582 9.31554C32.7659 7.94964 30.8749 7.1723 28.9199 7.1723C24.7933 7.1723 21.4361 10.5428 21.4361 14.6857C21.4361 15.012 21.4566 15.3364 21.4974 15.6564C16.3767 15.205 11.6161 12.6781 8.34695 8.65212C8.23044 8.50862 8.05096 8.43129 7.86721 8.44608C7.68334 8.46053 7.51814 8.56462 7.42526 8.72461C6.76221 9.86685 6.41169 11.1733 6.41169 12.5025C6.41169 14.3129 7.0555 16.0306 8.19277 17.3728C7.84697 17.2525 7.5114 17.1023 7.19112 16.9238C7.01918 16.8277 6.80933 16.8291 6.63851 16.9275C6.46758 17.0258 6.36041 17.2067 6.35591 17.4044C6.35512 17.4377 6.35512 17.471 6.35512 17.5048C6.35512 20.2071 7.80378 22.64 10.0186 23.9661C9.82833 23.947 9.63817 23.9193 9.44924 23.8831C9.25447 23.8457 9.05418 23.9143 8.92284 24.0634C8.79126 24.2124 8.74774 24.4202 8.80836 24.6099C9.62816 27.1795 11.7389 29.0697 14.2905 29.6459C12.1742 30.9767 9.754 31.6738 7.21339 31.6738C6.68327 31.6738 6.15011 31.6425 5.62832 31.5805C5.36911 31.5496 5.12125 31.7032 5.03297 31.9507C4.9447 32.1983 5.03826 32.4744 5.25879 32.6163C8.5226 34.7173 12.2965 35.8278 16.1723 35.8278C23.7917 35.8278 28.5582 32.2206 31.2149 29.1944C34.5279 25.4211 36.428 20.4266 36.428 15.4917C36.428 15.2855 36.4248 15.0773 36.4185 14.8698C37.7256 13.8811 38.8509 12.6846 39.7667 11.3093C39.9058 11.1004 39.8907 10.8244 39.7296 10.6321C39.5686 10.4397 39.3004 10.3775 39.0715 10.4794Z" fill="currentColor"/>
  </symbol>

 <!--cart-->
  <symbol id="cart-icon" viewBox="0 0 19 22">
    <g id="basket">
<path id="Rectangle-10" fill-rule="evenodd" clip-rule="evenodd" d="M18.9474 5.95123H0V17.7407C0 19.9499 1.79086 21.7407 4 21.7407H14.9474C17.1565 21.7407 18.9474 19.9499 18.9474 17.7407V5.95123ZM4 20.2407C2.61929 20.2407 1.5 19.1214 1.5 17.7407V7.45123H17.4474V17.7407C17.4474 19.1214 16.3281 20.2407 14.9474 20.2407H4Z" fill="currentColor"/>
<path id="Rectangle-3" d="M6.01315 11.1525V4.96053C6.01315 3.04933 7.56248 1.5 9.47368 1.5C11.3849 1.5 12.9342 3.04933 12.9342 4.96053V11.1525C12.9342 11.5667 13.27 11.9025 13.6842 11.9025C14.0984 11.9025 14.4342 11.5667 14.4342 11.1525V4.96053C14.4342 2.2209 12.2133 0 9.47368 0C6.73406 0 4.51315 2.2209 4.51315 4.96053V11.1525C4.51315 11.5667 4.84894 11.9025 5.26315 11.9025C5.67737 11.9025 6.01315 11.5667 6.01315 11.1525Z" fill="currentColor"/>
</g>
  </symbol>


  <symbol id="logo-icon" viewBox="0 0 159 33">
   <path d="M5.10869 10.8985C5.56279 10.1266 6.2553 9.47945 7.18622 8.95723C8.13984 8.43501 9.2978 8.1739 10.6601 8.1739C11.977 8.1739 13.1577 8.42366 14.2021 8.92317C15.2466 9.42269 16.0753 10.0925 16.6884 10.9326C17.3014 11.7727 17.7669 12.7036 18.0847 13.7253C18.4026 14.7244 18.5615 15.7688 18.5615 16.8587C18.5615 17.9485 18.4026 19.0043 18.0847 20.026C17.7669 21.0251 17.3014 21.9446 16.6884 22.7847C16.0753 23.6248 15.2466 24.2946 14.2021 24.7941C13.1577 25.2936 11.977 25.5434 10.6601 25.5434C8.59394 25.5434 6.97052 24.9304 5.78984 23.7043V32.5253H1.13783e-05V8.68477H5.10869V10.8985ZM11.6819 19.6173C12.2949 18.8454 12.6014 17.9258 12.6014 16.8587C12.6014 15.7915 12.2949 14.8719 11.6819 14.1C11.0915 13.328 10.2287 12.942 9.09345 12.942C8.34418 12.942 7.67438 13.1463 7.08404 13.555C6.49371 13.941 6.06231 14.4178 5.78984 14.9855V18.7318C6.06231 19.2995 6.49371 19.7876 7.08404 20.1963C7.67438 20.5823 8.34418 20.7753 9.09345 20.7753C10.2287 20.7753 11.0915 20.3893 11.6819 19.6173ZM27.0768 25.0325H21.287V8.68477H27.0768V25.0325ZM27.4855 3.1674C27.4855 4.23454 27.1676 5.04058 26.5319 5.5855C25.9188 6.10772 25.1355 6.36883 24.1819 6.36883C23.2283 6.36883 22.4336 6.10772 21.7978 5.5855C21.1848 5.04058 20.8783 4.23454 20.8783 3.1674C20.8783 2.12296 21.1961 1.33963 21.8319 0.817408C22.4676 0.272483 23.251 1.99977e-05 24.1819 1.99977e-05C25.1355 1.99977e-05 25.9188 0.272483 26.5319 0.817408C27.1676 1.33963 27.4855 2.12296 27.4855 3.1674ZM30.3264 8.68477H44.1198V12.0906L37.5126 20.2644H44.5966V25.0325H29.8496V21.6267L36.4909 13.4529H30.3264V8.68477ZM47.0892 8.68477H60.8827V12.0906L54.2754 20.2644H61.3595V25.0325H46.6124V21.6267L53.2537 13.4529H47.0892V8.68477ZM79.5868 20.3666C79.5868 21.0478 79.9614 21.3883 80.7107 21.3883C80.9378 21.3883 81.1535 21.3543 81.3578 21.2862V24.8622C80.495 25.2028 79.5187 25.3731 78.4288 25.3731C76.6124 25.3731 75.3182 24.7714 74.5462 23.568C72.8661 24.8849 70.9702 25.5434 68.8586 25.5434C67.2465 25.5434 65.8955 25.0893 64.8057 24.1811C63.7158 23.2729 63.1709 22.0468 63.1709 20.5028C63.1709 19.5265 63.3866 18.6751 63.818 17.9485C64.2494 17.1992 64.817 16.6316 65.5209 16.2456C66.2475 15.8596 66.9967 15.5758 67.7687 15.3942C68.5634 15.2125 69.3922 15.1217 70.2549 15.1217C71.481 15.1217 72.6617 15.2466 73.797 15.4963V14.9174C73.797 14.3043 73.5018 13.8162 72.9115 13.4529C72.3438 13.0669 71.5037 12.8739 70.3912 12.8739C68.6656 12.8739 66.7583 13.2939 64.6695 14.134V9.26375C66.8946 8.53718 69.0175 8.1739 71.0383 8.1739C73.831 8.1739 75.954 8.75288 77.4071 9.91085C78.8602 11.0688 79.5868 13.0328 79.5868 15.8029V20.3666ZM69.131 20.026C69.131 20.4801 69.3127 20.8661 69.676 21.184C70.0392 21.4792 70.5161 21.6267 71.1064 21.6267C72.1281 21.6267 73.025 21.3429 73.797 20.7753V18.5615C73.1839 18.3572 72.4914 18.255 71.7194 18.255C69.9938 18.255 69.131 18.8454 69.131 20.026ZM82.8694 13.3848C82.8694 11.5456 83.5392 10.2174 84.8788 9.39998C86.2184 8.58259 87.9213 8.1739 89.9875 8.1739C92.1218 8.1739 94.1766 8.63936 96.1519 9.57027V14.1681C95.4254 13.6686 94.5172 13.2599 93.4273 12.942C92.3602 12.6014 91.3498 12.4311 90.3962 12.4311C89.3517 12.4311 88.8295 12.7036 88.8295 13.2485C88.8295 13.6572 89.1247 13.9978 89.715 14.2703C90.3053 14.52 91.0206 14.7584 91.8607 14.9855C92.7007 15.2125 93.5408 15.4963 94.3809 15.8369C95.221 16.1548 95.9362 16.6884 96.5266 17.4376C97.1169 18.1869 97.4121 19.1292 97.4121 20.2644C97.4121 23.7837 94.8123 25.5434 89.6128 25.5434C86.979 25.5434 84.788 25.0439 83.0397 24.0449V19.447C84.788 20.605 86.8769 21.184 89.3063 21.184C90.7367 21.184 91.452 20.9115 91.452 20.3666C91.452 19.9806 91.1568 19.6627 90.5665 19.413C89.9761 19.1405 89.2609 18.8908 88.4208 18.6637C87.5807 18.4367 86.7406 18.1528 85.9005 17.8123C85.0604 17.449 84.3452 16.8927 83.7549 16.1434C83.1646 15.3942 82.8694 14.4746 82.8694 13.3848ZM100.012 1.19204H105.801V9.91085C107.096 8.75288 108.606 8.1739 110.331 8.1739C112.465 8.1739 114.089 8.80965 115.201 10.0811C116.314 11.3299 116.87 12.9306 116.87 14.8833V25.0325H111.08V15.6666C111.08 14.8265 110.853 14.1908 110.399 13.7594C109.945 13.328 109.344 13.1123 108.594 13.1123C107.482 13.1123 106.551 13.5891 105.801 14.5427V25.0325H100.012V1.19204ZM121.972 23.2956C120.224 21.7743 119.35 19.6287 119.35 16.8587C119.35 14.0886 120.224 11.9543 121.972 10.4558C123.743 8.93453 125.934 8.1739 128.545 8.1739C131.156 8.1739 133.336 8.93453 135.084 10.4558C136.855 11.9543 137.741 14.0886 137.741 16.8587C137.741 19.6287 136.855 21.7743 135.084 23.2956C133.336 24.7941 131.156 25.5434 128.545 25.5434C125.934 25.5434 123.743 24.7941 121.972 23.2956ZM130.997 19.413C131.52 18.7318 131.781 17.8804 131.781 16.8587C131.781 15.8369 131.52 14.9855 130.997 14.3043C130.475 13.6232 129.658 13.2826 128.545 13.2826C127.433 13.2826 126.615 13.6232 126.093 14.3043C125.571 14.9855 125.31 15.8369 125.31 16.8587C125.31 17.8804 125.571 18.7318 126.093 19.413C126.615 20.0941 127.433 20.4347 128.545 20.4347C129.658 20.4347 130.475 20.0941 130.997 19.413ZM145.497 10.8985C145.952 10.1266 146.644 9.47945 147.575 8.95723C148.529 8.43501 149.687 8.1739 151.049 8.1739C152.366 8.1739 153.546 8.42366 154.591 8.92317C155.635 9.42269 156.464 10.0925 157.077 10.9326C157.69 11.7727 158.156 12.7036 158.474 13.7253C158.791 14.7244 158.95 15.7688 158.95 16.8587C158.95 17.9485 158.791 19.0043 158.474 20.026C158.156 21.0251 157.69 21.9446 157.077 22.7847C156.464 23.6248 155.635 24.2946 154.591 24.7941C153.546 25.2936 152.366 25.5434 151.049 25.5434C148.983 25.5434 147.359 24.9304 146.179 23.7043V32.5253H140.389V8.68477H145.497V10.8985ZM152.071 19.6173C152.684 18.8454 152.99 17.9258 152.99 16.8587C152.99 15.7915 152.684 14.8719 152.071 14.1C151.48 13.328 150.618 12.942 149.482 12.942C148.733 12.942 148.063 13.1463 147.473 13.555C146.883 13.941 146.451 14.4178 146.179 14.9855V18.7318C146.451 19.2995 146.883 19.7876 147.473 20.1963C148.063 20.5823 148.733 20.7753 149.482 20.7753C150.618 20.7753 151.48 20.3893 152.071 19.6173Z" fill="currentColor"/>
  </symbol>

  <symbol id="icon-close" viewBox="0 0 21 21">
  <path
    fill-rule="evenodd"
    clip-rule="evenodd"
    d="M20.2384 2.56065C20.8242 1.97487 20.8242 1.02512 20.2384 0.439339C19.6526 -0.146446 18.7028 -0.146446 18.117 0.439339L10.3389 8.21748L2.56072 0.439367C1.97493 -0.146418 1.02519 -0.146419 0.439399 0.439366C-0.146388 1.02515 -0.146388 1.9749 0.439399 2.56068L8.21755 10.3388L0.43934 18.117C-0.146447 18.7028 -0.146447 19.6525 0.43934 20.2383C1.02513 20.8241 1.97488 20.8241 2.56066 20.2383L10.3389 12.4601L18.1171 20.2383C18.7029 20.8241 19.6526 20.8241 20.2384 20.2383C20.8242 19.6525 20.8242 18.7028 20.2384 18.117L12.4602 10.3388L20.2384 2.56065Z"
    fill="currentColor"
  />
</symbol>
<symbol id="icon-trash" viewBox="0 0 24 24" fill="none">
  <path stroke-linecap="round" stroke-linejoin="round" d="m14.74 9-.346 9m-4.788 0L9.26 9m9.968-3.21c.342.052.682.107 1.022.166m-1.022-.165L18.16 19.673a2.25 2.25 0 0 1-2.244 2.077H8.084a2.25 2.25 0 0 1-2.244-2.077L4.772 5.79m14.456 0a48.108 48.108 0 0 0-3.478-.397m-12 .562c.34-.059.68-.114 1.022-.165m0 0a48.11 48.11 0 0 1 3.478-.397m7.5 0v-.916c0-1.18-.91-2.164-2.09-2.201a51.964 51.964 0 0 0-3.32 0c-1.18.037-2.09 1.022-2.09 2.201v.916m7.5 0a48.667 48.667 0 0 0-7.5 0"  stroke-width="1.5" stroke="currentColor" class="size-6"/>
</symbol>
<symbol id="google" viewBox="0 0 40 40" fill="none">
  <rect x="0.5" y="0.5" width="39" height="39" rx="3.5" fill="white"/>
<g clip-path="url(#clip0_710_6223)">
<path d="M29.6 20.2273C29.6 19.5182 29.5364 18.8364 29.4182 18.1818H20V22.05H25.3818C25.15 23.3 24.4455 24.3591 23.3864 25.0682V27.5773H26.6182C28.5091 25.8364 29.6 23.2727 29.6 20.2273Z" fill="#4285F4"/>
<path d="M20 30C22.7 30 24.9636 29.1045 26.6181 27.5773L23.3863 25.0682C22.4909 25.6682 21.3454 26.0227 20 26.0227C17.3954 26.0227 15.1909 24.2636 14.4045 21.9H11.0636V24.4909C12.7091 27.7591 16.0909 30 20 30Z" fill="#34A853"/>
<path d="M14.4045 21.9C14.2045 21.3 14.0909 20.6591 14.0909 20C14.0909 19.3409 14.2045 18.7 14.4045 18.1V15.5091H11.0636C10.3864 16.8591 10 18.3864 10 20C10 21.6136 10.3864 23.1409 11.0636 24.4909L14.4045 21.9Z" fill="#FBBC04"/>
<path d="M20 13.9773C21.4681 13.9773 22.7863 14.4818 23.8227 15.4727L26.6909 12.6045C24.9591 10.9909 22.6954 10 20 10C16.0909 10 12.7091 12.2409 11.0636 15.5091L14.4045 18.1C15.1909 15.7364 17.3954 13.9773 20 13.9773Z" fill="#E94235"/>
</g>
<rect x="0.5" y="0.5" width="39" height="39" rx="3.5" stroke="#747775"/>
<defs>
<clipPath id="clip0_710_6223">
<rect width="20" height="20" fill="white" transform="translate(10 10)"/>
</clipPath>
</defs>
</symbol>
<symbol id="apple" viewBox="0 0 24 24">
  <path d="M16.365 1.43c0 1.14-.447 2.204-1.31 3.078-.89.89-1.97 1.41-3.11 1.33-.07-1.11.42-2.22 1.26-3.08C14.095 1.79 15.205 1.31 16.365 1.43zM19.57 17.16c-.42.97-.61 1.43-1.1 2.29-.72 1.2-1.73 2.66-3 2.66-1.13 0-1.49-.7-2.93-.7-1.46 0-1.83.7-2.99.7-1.3 0-2.31-1.4-3.03-2.6-1.39-2.2-2.47-6.21-.99-8.93C6.16 8.53 7.85 7.4 9.72 7.4c1.38 0 2.25.77 2.85.77.56 0 1.86-.82 3.33-.82.55 0 2.52.06 3.72 1.88-3.26 1.92-2.73 6.53-.11 7.89z" fill="currentColor"/>
</symbol>
<symbol id="facebook" viewBox="0 0 24 24">
  <path fill="#1877F2" d="M24 12.073C24 5.405 18.627 0 12 0S0 5.405 0 12.073C0 18.1 4.388 23.093 10.125 24v-8.437H7.078v-3.49h3.047V9.356c0-3.007 1.792-4.669 4.533-4.669 1.312 0 2.686.235 2.686.235v2.96h-1.513c-1.49 0-1.953.93-1.953 1.88v2.25h3.328l-.532 3.49h-2.796V24C19.612 23.093 24 18.1 24 12.073z"/>
</symbol>
<symbol id="email" viewBox="0 0 24 24">
  <path fill="currentColor" d="M2 4h20c1.1 0 2 .9 2 2v12c0 1.1-.9 2-2 2H2c-1.1 
  0-2-.9-2-2V6c0-1.1.9-2 2-2zm10 7L2 6v12h20V6l-10 5z"/>
</symbol>
</svg>

